#!OML:ASF I:\Actors\actors\Patient Classification 1\Patient 1\Session 1\Subject1.ASF
:FULLY-SPECIFIED
:DEGREES
821
root 0.0767552 17.5558 9.53779 13.7393 2.95678 -10.0985
lowerback 4.89591 1.6811 7.04566
upperback -6.28538 3.1138 2.12852
thorax -9.19947 1.12693 -2.0647
lowerneck -19.9529 -4.68614 -2.07902
upperneck 23.1068 -7.9006 7.14679
head 11.1987 -2.87184 1.7184
rclavicle 1.80521e-014 2.08724e-014
rhumerus 32.3645 38.031 -51.2395
rradius 59.6082
rwrist 28.7825
rhand 5.04004 -25.0073
rfingers 7.12502
rthumb 30.4082 -52.5199
lclavicle 1.80521e-014 2.08724e-014
lhumerus 14.1088 -27.5551 83.8578
lradius 58.4344
lwrist 21.3223
lhand -24.7122 -7.24731
lfingers 7.12502
lthumb 1.78952 22.7249
rfemur -12.2252 18.4792 27.7474
rtibia 8.43233
rfoot -12.3715 -22.4575
rtoes 4.16466
lfemur -3.52864 -43.8292 -2.1733
ltibia -3.52403
lfoot -19.8367 50.8288
ltoes 5.29838
822
root 0.0783364 17.5495 9.53827 13.6687 3.20071 -10.4144
lowerback 5.00612 1.48443 7.25804
upperback -6.32628 2.90125 2.34771
thorax -9.3348 1.01181 -1.9278
lowerneck -20.0203 -4.67208 -2.06995
upperneck 23.358 -7.8689 7.0104
head 11.2966 -2.86495 1.67268
rclavicle -6.21202e-017 1.94809e-014
rhumerus 31.3926 38.1746 -52.256
rradius 60.4275
rwrist 28.0039
rhand 4.08293 -26.9989
rfingers 7.12502
rthumb 29.4949 -54.6764
lclavicle -6.21202e-017 1.94809e-014
lhumerus 14.2001 -26.0396 84.1636
lradius 58.2513
lwrist 30.8823
lhand -25.1413 -5.32096
lfingers 7.12502
lthumb 1.3751 24.6544
rfemur -12.1388 18.1507 28.2049
rtibia 8.44909
rfoot -12.3665 -22.3142
rtoes 4.08722
lfemur -3.58795 -43.3839 -1.75007
ltibia -3.53701
lfoot -19.0501 50.3882
ltoes 4.50545
823
root 0.0865542 17.5445 9.53132 13.4256 3.45137 -10.9872
lowerback 5.45445 1.24778 7.85867
upperback -6.38765 2.71444 2.59391
thorax -9.68478 0.874264 -1.98815
lowerneck -20.0024 -4.64578 -1.95859
upperneck 23.5734 -7.83636 6.82653
head 11.3582 -2.85808 1.59386
rclavicle 1.42876e-014 -9.93923e-015
rhumerus 30.4076 38.468 -53.3543
rradius 61.0936
rwrist 27.2979
rhand 3.14192 -29.3446
rfingers 7.12502
rthumb 28.5962 -57.177
lclavicle 1.42876e-014 -9.93923e-015
lhumerus 14.2031 -24.537 84.3593
lradius 57.9913
lwrist 39.0928
lhand -25.1041 -3.63364
lfingers 7.12502
lthumb 1.41103 26.3414
rfemur -11.8781 17.6747 29.0153
rtibia 8.47066
rfoot -12.3151 -22.021
rtoes 3.79015
lfemur -3.45375 -42.6212 -1.20748
ltibia -3.51373
lfoot -18.3663 49.5863
ltoes 3.7582
824
root 0.0940986 17.5427 9.53108 13.2408 3.43072 -11.3226
lowerback 5.67533 1.08866 8.21493
upperback -6.37804 2.56949 2.70069
thorax -9.81731 0.777573 -2.0578
lowerneck -19.9574 -4.60078 -1.84548
upperneck 23.6933 -7.81032 6.78781
head 11.387 -2.83905 1.56658
rclavicle -1.89218e-014 2.76311e-014
rhumerus 29.6383 38.7858 -54.4187
rradius 61.6771
rwrist 26.5681
rhand 2.71013 -31.8502
rfingers 7.12502
rthumb 28.1835 -59.7515
lclavicle -1.89218e-014 2.76311e-014
lhumerus 14.3435 -23.6616 84.1784
lradius 57.497
lwrist 43.5202
lhand -25.8493 -2.80878
lfingers 7.12502
lthumb 0.691317 27.1698
rfemur -11.6798 17.4374 29.4722
rtibia 8.50634
rfoot -12.2534 -21.7578
rtoes 3.46186
lfemur -3.22115 -42.3071 -1.04291
ltibia -3.41987
lfoot -18.5385 49.2525
ltoes 3.89184
825
root 0.101907 17.5436 9.53939 13.1047 3.15517 -11.3478
lowerback 5.68179 1.01216 8.23681
upperback -6.29458 2.46036 2.68243
thorax -9.73667 0.726685 -2.07511
lowerneck -19.9488 -4.57456 -1.89857
upperneck 23.7678 -7.82158 6.98938
head 11.4273 -2.82171 1.64794
rclavicle -1.33186e-014 -1.68967e-014
rhumerus 29.1521 39.0419 -55.4573
rradius 62.0942
rwrist 26.0014
rhand 2.96134 -34.0626
rfingers 7.12502
rthumb 28.4236 -61.924
lclavicle -1.33186e-014 -1.68967e-014
lhumerus 14.6962 -23.5787 83.6836
lradius 56.6882
lwrist 43.4285
lhand -27.8945 -3.11783
lfingers 7.12502
lthumb -1.28406 26.8581
rfemur -11.5013 17.3908 29.503
rtibia 8.52347
rfoot -12.1765 -21.5392
rtoes 2.89625
lfemur -2.80854 -42.5201 -1.37648
ltibia -3.36355
lfoot -19.2674 49.504
ltoes 4.65357
826
root 0.108462 17.5442 9.54273 13.0259 2.67324 -11.4243
lowerback 5.74582 1.01841 8.25629
upperback -6.24104 2.47217 2.67268
thorax -9.71293 0.732204 -2.0995
lowerneck -20.0535 -4.609 -2.08562
upperneck 23.9517 -7.89564 7.22428
head 11.5422 -2.83434 1.75273
rclavicle 2.65874e-015 2.56432e-014
rhumerus 28.7524 39.2796 -56.495
rradius 62.2959
rwrist 25.6447
rhand 3.28842 -35.8347
rfingers 7.12502
rthumb 28.7361 -63.6435
lclavicle 2.65874e-015 2.56432e-014
lhumerus 15.1813 -23.6864 83.1311
lradius 55.6056
lwrist 41.572
lhand -29.5648 -4.67709
lfingers 7.12502
lthumb -2.89718 25.283
rfemur -11.4272 17.3835 29.5677
rtibia 8.60343
rfoot -12.0972 -21.1722
rtoes 2.48473
lfemur -2.31022 -42.675 -1.6882
ltibia -3.43632
lfoot -19.9311 49.9386
ltoes 5.35352
827
root 0.111181 17.5477 9.54535 13.2321 2.02244 -11.1656
lowerback 5.57194 1.08326 7.82658
upperback -6.2883 2.49113 2.58651
thorax -9.66464 0.768907 -1.95219
lowerneck -20.1523 -4.65606 -2.1687
upperneck 24.214 -7.97502 7.27006
head 11.6724 -2.86181 1.77072
rclavicle 2.06239e-015 -3.73715e-014
rhumerus 28.5406 39.6836 -57.3893
rradius 62.2951
rwrist 25.109
rhand 3.62887 -37.2824
rfingers 7.12502
rthumb 29.0613 -65.0356
lclavicle 2.06239e-015 -3.73715e-014
lhumerus 15.6567 -23.9135 82.4884
lradius 54.5344
lwrist 39.4333
lhand -31.2835 -5.88854
lfingers 7.12502
lthumb -4.55688 24.0424
rfemur -11.7192 17.5884 29.1249
rtibia 8.74017
rfoot -12.0558 -20.8678
rtoes 2.364
lfemur -2.20543 -42.7744 -2.14221
ltibia -3.41395
lfoot -20.6821 50.4334
ltoes 6.13349
828
root 0.111477 17.5558 9.55118 13.6199 1.23521 -10.4125
lowerback 5.18168 1.18702 6.81106
upperback -6.39675 2.47727 2.36436
thorax -9.56585 0.826265 -1.61532
lowerneck -20.0525 -4.73334 -2.04933
upperneck 24.3414 -8.05163 6.97271
head 11.6842 -2.92308 1.63068
rclavicle -1.97915e-014 -1.51076e-014
rhumerus 28.4817 40.2007 -58.2639
rradius 62.0681
rwrist 23.9015
rhand 3.98003 -38.6606
rfingers 7.12502
rthumb 29.3966 -66.3554
lclavicle -1.97915e-014 -1.51076e-014
lhumerus 16.0489 -24.4156 81.7835
lradius 53.8291
lwrist 39.8524
lhand -34.0397 -6.92863
lfingers 7.12502
lthumb -7.21784 22.9283
rfemur -12.2247 18.114 27.9927
rtibia 8.84629
rfoot -12.0617 -20.8118
rtoes 2.52556
lfemur -2.37851 -43.0493 -3.01973
ltibia -3.25997
lfoot -21.8679 51.034
ltoes 7.30606
829
root 0.11626 17.5604 9.55132 13.8504 0.439415 -9.97935
lowerback 5.03732 1.31994 6.24016
upperback -6.48609 2.57659 2.17623
thorax -9.57709 0.905319 -1.50824
lowerneck -19.8299 -4.86532 -1.81779
upperneck 24.3101 -8.15972 6.44267
head 11.5942 -3.02613 1.38293
rclavicle -2.29845e-015 3.89618e-014
rhumerus 28.4055 40.6637 -59.2703
rradius 61.7085
rwrist 21.7895
rhand 3.83939 -40.4669
rfingers 7.12502
rthumb 29.2624 -68.1852
lclavicle -2.29845e-015 3.89618e-014
lhumerus 16.4091 -24.8502 81.2231
lradius 53.1813
lwrist 41.272
lhand -36.0428 -7.58488
lfingers 7.12502
lthumb -9.15107 22.1966
rfemur -12.5595 18.5743 27.2771
rtibia 8.9118
rfoot -11.9844 -20.6502
rtoes 2.45903
lfemur -2.29746 -43.1925 -3.68261
ltibia -3.21994
lfoot -23.0846 51.5321
ltoes 8.54843
830
root 0.127239 17.559 9.55119 13.9716 -0.333324 -9.95535
lowerback 5.00633 1.47623 6.22854
upperback -6.53829 2.77599 2.0609
thorax -9.59653 0.996703 -1.64903
lowerneck -19.6807 -4.9713 -1.62304
upperneck 24.2701 -8.28155 6.13222
head 11.5295 -3.10855 1.2198
rclavicle 7.65321e-015 -1.63003e-014
rhumerus 28.2903 40.9917 -60.4432
rradius 61.2966
rwrist 18.8508
rhand 3.51146 -42.4485
rfingers 7.12502
rthumb 28.9492 -70.221
lclavicle 7.65321e-015 -1.63003e-014
lhumerus 16.6607 -25.2232 80.7824
lradius 52.7623
lwrist 42.94
lhand -37.967 -8.03654
lfingers 7.12502
lthumb -11.0074 21.6549
rfemur -12.7403 18.7357 27.1137
rtibia 8.99103
rfoot -11.798 -20.1724
rtoes 1.59554
lfemur -1.90487 -43.3055 -4.07548
ltibia -3.34785
lfoot -24.4397 52.0366
ltoes 10.0346
831
root 0.143875 17.5525 9.55251 13.9567 -0.962908 -10.3433
lowerback 5.05808 1.59596 6.75235
upperback -6.52456 2.99054 2.05711
thorax -9.5783 1.06395 -1.9716
lowerneck -19.3968 -5.10213 -1.69897
upperneck 23.9693 -8.48653 6.37015
head 11.3865 -3.19472 1.2914
rclavicle 5.05658e-015 1.47101e-014
rhumerus 28.17 41.1482 -61.7945
rradius 60.8322
rwrist 15.4801
rhand 3.45037 -44.1916
rfingers 7.12502
rthumb 28.8908 -71.9741
lclavicle 5.05658e-015 1.47101e-014
lhumerus 16.8245 -25.4912 80.4388
lradius 52.5012
lwrist 43.796
lhand -40.0849 -8.36889
lfingers 7.12502
lthumb -13.0496 21.2029
rfemur -12.6584 18.682 27.5372
rtibia 9.01171
rfoot -11.5711 -19.5257
rtoes 0.390196
lfemur -1.22238 -43.3987 -4.18978
ltibia -3.57849
lfoot -25.7527 52.4859
ltoes 11.4376
832
root 0.165549 17.5436 9.54851 13.8369 -1.37097 -11.1162
lowerback 5.29617 1.61657 7.78457
upperback -6.47558 3.14961 2.18126
thorax -9.62466 1.07122 -2.43812
lowerneck -18.9003 -5.26216 -2.09273
upperneck 23.4157 -8.73262 7.04509
head 11.151 -3.28819 1.57095
rclavicle 6.62201e-015 2.42517e-014
rhumerus 28.06 41.2602 -63.1783
rradius 60.4387
rwrist 12.0897
rhand 3.06595 -45.7957
rfingers 7.12502
rthumb 28.5236 -73.6404
lclavicle 6.62201e-015 2.42517e-014
lhumerus 16.986 -25.5679 80.1807
lradius 52.1146
lwrist 43.1999
lhand -42.19 -9.01187
lfingers 7.12502
lthumb -15.0782 20.419
rfemur -12.3835 18.5038 28.4719
rtibia 8.92448
rfoot -11.3601 -18.8475
rtoes -0.43194
lfemur -0.556698 -43.1312 -3.84581
ltibia -3.76954
lfoot -26.2221 52.6362
ltoes 11.9885
833
root 0.181892 17.5407 9.54298 13.8987 -1.83081 -11.4166
lowerback 5.38435 1.61627 8.17084
upperback -6.48736 3.20228 2.23851
thorax -9.67607 1.06869 -2.60029
lowerneck -18.7508 -5.28967 -1.91772
upperneck 23.3949 -8.76989 6.84705
head 11.0966 -3.31965 1.4678
rclavicle 8.62228e-015 5.4467e-014
rhumerus 27.8441 41.3066 -64.6637
rradius 60.0788
rwrist 9.26603
rhand 2.05974 -47.1952
rfingers 7.12502
rthumb 27.5617 -75.1973
lclavicle 8.62228e-015 5.4467e-014
lhumerus 17.0527 -25.4345 80.0264
lradius 51.6337
lwrist 41.5972
lhand -44.1181 -10.0851
lfingers 7.12502
lthumb -16.9349 19.1966
rfemur -12.4107 18.5242 28.73
rtibia 8.87299
rfoot -11.2473 -18.3913
rtoes -0.676903
lfemur -0.373216 -42.8511 -3.75246
ltibia -3.75937
lfoot -26.5041 52.7794
ltoes 12.333
834
root 0.191612 17.5425 9.53857 14.0463 -2.33571 -11.3007
lowerback 5.36061 1.62818 7.9421
upperback -6.54461 3.19547 2.22806
thorax -9.73361 1.07758 -2.48391
lowerneck -19.392 -5.26157 -1.39924
upperneck 24.3985 -8.7157 5.89281
head 11.5177 -3.32003 1.03098
rclavicle -1.1281e-014 -7.196e-014
rhumerus 27.5173 41.1828 -66.3258
rradius 59.5677
rwrist 7.68971
rhand 0.855233 -48.3403
rfingers 7.12502
rthumb 26.4093 -76.5208
lclavicle -1.1281e-014 -7.196e-014
lhumerus 17.004 -25.2211 79.9638
lradius 51.2448
lwrist 40.2185
lhand -45.8189 -11.3139
lfingers 7.12502
lthumb -18.5715 17.8196
rfemur -12.6183 18.7593 28.4359
rtibia 8.88672
rfoot -11.1937 -18.1752
rtoes -0.63075
lfemur -0.401797 -42.7324 -3.99598
ltibia -3.67324
lfoot -26.9357 52.9895
ltoes 12.7003
